<svg xmlns="http://www.w3.org/2000/svg" xmlns:xlink="http://www.w3.org/1999/xlink" width="1280" height="265" viewBox="0 0 1280 265"><defs><style>.a{fill:url(#a);}.b{clip-path:url(#b);}.c{opacity:0.197;}.d{fill:#fff;}.e{mix-blend-mode:overlay;isolation:isolate;fill:url(#d);}</style><linearGradient id="a" x2="1" y2="1" gradientUnits="objectBoundingBox"><stop offset="0" stop-color="#a473ed"/><stop offset="1" stop-color="#fa5a8e"/></linearGradient><clipPath id="b"><rect class="a" width="1280" height="265" transform="translate(0 60)"/></clipPath><linearGradient id="d" x1="0.5" y1="1" x2="0.5" gradientUnits="objectBoundingBox"><stop offset="0" stop-color="#c9e9ff"/><stop offset="1" stop-color="#657580" stop-opacity="0"/></linearGradient></defs><g class="b" transform="translate(0 -60)"><rect class="a" width="1280" height="265" transform="translate(0 60)"/><g class="c" transform="matrix(0.995, -0.105, 0.105, 0.995, -60.535, 53.782)"><g transform="translate(12.369 -0.083) rotate(11)"><path class="d" d="M2.9.016a2.914,2.914,0,0,1,0,5.828A2.914,2.914,0,0,1,2.9.016Z" transform="translate(0.331 63.08)"/><path class="d" d="M2.9.016a2.914,2.914,0,0,1,0,5.828A2.914,2.914,0,0,1,2.9.016Z" transform="translate(17.367 50.56)"/><path class="d" d="M2.9.016a2.914,2.914,0,0,1,0,5.828A2.914,2.914,0,0,1,2.9.016Z" transform="translate(34.402 38.039)"/><path class="d" d="M2.9.016a2.914,2.914,0,0,1,0,5.828A2.914,2.914,0,0,1,2.9.016Z" transform="translate(51.438 25.518)"/><path class="d" d="M2.9.016a2.914,2.914,0,0,1,0,5.828A2.914,2.914,0,0,1,2.9.016Z" transform="translate(68.474 12.998)"/><path class="d" d="M2.9.016a2.914,2.914,0,0,1,0,5.828A2.914,2.914,0,0,1,2.9.016Z" transform="translate(85.51 0.477)"/></g><g transform="translate(27.67 30.388) rotate(11)"><path class="d" d="M2.9.016a2.914,2.914,0,0,1,0,5.828A2.914,2.914,0,0,1,2.9.016Z" transform="translate(0.331 63.08)"/><path class="d" d="M2.9.016a2.914,2.914,0,0,1,0,5.828A2.914,2.914,0,0,1,2.9.016Z" transform="translate(17.367 50.56)"/><path class="d" d="M2.9.016a2.914,2.914,0,0,1,0,5.828A2.914,2.914,0,0,1,2.9.016Z" transform="translate(34.402 38.039)"/><path class="d" d="M2.9.016a2.914,2.914,0,0,1,0,5.828A2.914,2.914,0,0,1,2.9.016Z" transform="translate(51.438 25.518)"/><path class="d" d="M2.9.016a2.914,2.914,0,0,1,0,5.828A2.914,2.914,0,0,1,2.9.016Z" transform="translate(68.474 12.998)"/><path class="d" d="M2.9.016a2.914,2.914,0,0,1,0,5.828A2.914,2.914,0,0,1,2.9.016Z" transform="translate(85.51 0.477)"/></g><g transform="translate(19.594 14.938) rotate(11)"><path class="d" d="M2.9.016a2.914,2.914,0,0,1,0,5.828A2.914,2.914,0,0,1,2.9.016Z" transform="translate(0.331 63.08)"/><path class="d" d="M2.9.016a2.914,2.914,0,0,1,0,5.828A2.914,2.914,0,0,1,2.9.016Z" transform="translate(17.367 50.56)"/><path class="d" d="M2.9.016a2.914,2.914,0,0,1,0,5.828A2.914,2.914,0,0,1,2.9.016Z" transform="translate(34.402 38.039)"/><path class="d" d="M2.9.016a2.914,2.914,0,0,1,0,5.828A2.914,2.914,0,0,1,2.9.016Z" transform="translate(51.438 25.518)"/><path class="d" d="M2.9.016a2.914,2.914,0,0,1,0,5.828A2.914,2.914,0,0,1,2.9.016Z" transform="translate(68.474 12.998)"/><path class="d" d="M2.9.016a2.914,2.914,0,0,1,0,5.828A2.914,2.914,0,0,1,2.9.016Z" transform="translate(85.51 0.477)"/></g><g transform="translate(34.895 45.409) rotate(11)"><path class="d" d="M2.9.016a2.914,2.914,0,0,1,0,5.828A2.914,2.914,0,0,1,2.9.016Z" transform="translate(0.331 63.08)"/><path class="d" d="M2.9.016a2.914,2.914,0,0,1,0,5.828A2.914,2.914,0,0,1,2.9.016Z" transform="translate(17.367 50.56)"/><path class="d" d="M2.9.016a2.914,2.914,0,0,1,0,5.828A2.914,2.914,0,0,1,2.9.016Z" transform="translate(34.402 38.039)"/><path class="d" d="M2.9.016a2.914,2.914,0,0,1,0,5.828A2.914,2.914,0,0,1,2.9.016Z" transform="translate(51.438 25.518)"/><path class="d" d="M2.9.016a2.914,2.914,0,0,1,0,5.828A2.914,2.914,0,0,1,2.9.016Z" transform="translate(68.474 12.998)"/><path class="d" d="M2.9.016a2.914,2.914,0,0,1,0,5.828A2.914,2.914,0,0,1,2.9.016Z" transform="translate(85.51 0.477)"/></g></g><g class="c" transform="translate(1211.549 203.112) rotate(30)"><g transform="translate(12.637 0.346) rotate(11)"><path class="d" d="M2.981.092A3.075,3.075,0,0,1,6.007,3.009,2.745,2.745,0,0,1,3.114,5.786,3.075,3.075,0,0,1,.088,2.869,2.745,2.745,0,0,1,2.981.092Z" transform="translate(1.899 61.872)"/><path class="d" d="M2.981.092A3.075,3.075,0,0,1,6.007,3.009,2.745,2.745,0,0,1,3.114,5.786,3.075,3.075,0,0,1,.088,2.869,2.745,2.745,0,0,1,2.981.092Z" transform="translate(19.07 50.041)"/><path class="d" d="M2.981.092A3.075,3.075,0,0,1,6.007,3.009,2.745,2.745,0,0,1,3.114,5.786,3.075,3.075,0,0,1,.088,2.869,2.745,2.745,0,0,1,2.981.092Z" transform="translate(36.241 38.21)"/><path class="d" d="M2.981.092A3.075,3.075,0,0,1,6.007,3.009,2.745,2.745,0,0,1,3.114,5.786,3.075,3.075,0,0,1,.088,2.869,2.745,2.745,0,0,1,2.981.092Z" transform="translate(53.412 26.379)"/><path class="d" d="M2.981.092A3.075,3.075,0,0,1,6.007,3.009,2.745,2.745,0,0,1,3.114,5.786,3.075,3.075,0,0,1,.088,2.869,2.745,2.745,0,0,1,2.981.092Z" transform="translate(70.583 14.548)"/><path class="d" d="M2.981.092A3.075,3.075,0,0,1,6.007,3.009,2.745,2.745,0,0,1,3.114,5.786,3.075,3.075,0,0,1,.088,2.869,2.745,2.745,0,0,1,2.981.092Z" transform="translate(87.753 2.717)"/></g><g transform="translate(29.041 30.896) rotate(11)"><path class="d" d="M2.981.092A3.075,3.075,0,0,1,6.007,3.009,2.745,2.745,0,0,1,3.114,5.786,3.075,3.075,0,0,1,.088,2.869,2.745,2.745,0,0,1,2.981.092Z" transform="translate(1.899 61.872)"/><path class="d" d="M2.981.092A3.075,3.075,0,0,1,6.007,3.009,2.745,2.745,0,0,1,3.114,5.786,3.075,3.075,0,0,1,.088,2.869,2.745,2.745,0,0,1,2.981.092Z" transform="translate(19.07 50.041)"/><path class="d" d="M2.981.092A3.075,3.075,0,0,1,6.007,3.009,2.745,2.745,0,0,1,3.114,5.786,3.075,3.075,0,0,1,.088,2.869,2.745,2.745,0,0,1,2.981.092Z" transform="translate(36.241 38.21)"/><path class="d" d="M2.981.092A3.075,3.075,0,0,1,6.007,3.009,2.745,2.745,0,0,1,3.114,5.786,3.075,3.075,0,0,1,.088,2.869,2.745,2.745,0,0,1,2.981.092Z" transform="translate(53.412 26.379)"/><path class="d" d="M2.981.092A3.075,3.075,0,0,1,6.007,3.009,2.745,2.745,0,0,1,3.114,5.786,3.075,3.075,0,0,1,.088,2.869,2.745,2.745,0,0,1,2.981.092Z" transform="translate(70.583 14.548)"/><path class="d" d="M2.981.092A3.075,3.075,0,0,1,6.007,3.009,2.745,2.745,0,0,1,3.114,5.786,3.075,3.075,0,0,1,.088,2.869,2.745,2.745,0,0,1,2.981.092Z" transform="translate(87.753 2.717)"/></g><g transform="translate(20.401 15.397) rotate(11)"><path class="d" d="M2.981.092A3.075,3.075,0,0,1,6.007,3.009,2.745,2.745,0,0,1,3.114,5.786,3.075,3.075,0,0,1,.088,2.869,2.745,2.745,0,0,1,2.981.092Z" transform="translate(1.899 61.872)"/><path class="d" d="M2.981.092A3.075,3.075,0,0,1,6.007,3.009,2.745,2.745,0,0,1,3.114,5.786,3.075,3.075,0,0,1,.088,2.869,2.745,2.745,0,0,1,2.981.092Z" transform="translate(19.07 50.041)"/><path class="d" d="M2.981.092A3.075,3.075,0,0,1,6.007,3.009,2.745,2.745,0,0,1,3.114,5.786,3.075,3.075,0,0,1,.088,2.869,2.745,2.745,0,0,1,2.981.092Z" transform="translate(36.241 38.21)"/><path class="d" d="M2.981.092A3.075,3.075,0,0,1,6.007,3.009,2.745,2.745,0,0,1,3.114,5.786,3.075,3.075,0,0,1,.088,2.869,2.745,2.745,0,0,1,2.981.092Z" transform="translate(53.412 26.379)"/><path class="d" d="M2.981.092A3.075,3.075,0,0,1,6.007,3.009,2.745,2.745,0,0,1,3.114,5.786,3.075,3.075,0,0,1,.088,2.869,2.745,2.745,0,0,1,2.981.092Z" transform="translate(70.583 14.548)"/><path class="d" d="M2.981.092A3.075,3.075,0,0,1,6.007,3.009,2.745,2.745,0,0,1,3.114,5.786,3.075,3.075,0,0,1,.088,2.869,2.745,2.745,0,0,1,2.981.092Z" transform="translate(87.753 2.717)"/></g><g transform="translate(36.806 45.947) rotate(11)"><path class="d" d="M2.981.092A3.075,3.075,0,0,1,6.007,3.009,2.745,2.745,0,0,1,3.114,5.786,3.075,3.075,0,0,1,.088,2.869,2.745,2.745,0,0,1,2.981.092Z" transform="translate(1.899 61.872)"/><path class="d" d="M2.981.092A3.075,3.075,0,0,1,6.007,3.009,2.745,2.745,0,0,1,3.114,5.786,3.075,3.075,0,0,1,.088,2.869,2.745,2.745,0,0,1,2.981.092Z" transform="translate(19.07 50.041)"/><path class="d" d="M2.981.092A3.075,3.075,0,0,1,6.007,3.009,2.745,2.745,0,0,1,3.114,5.786,3.075,3.075,0,0,1,.088,2.869,2.745,2.745,0,0,1,2.981.092Z" transform="translate(36.241 38.21)"/><path class="d" d="M2.981.092A3.075,3.075,0,0,1,6.007,3.009,2.745,2.745,0,0,1,3.114,5.786,3.075,3.075,0,0,1,.088,2.869,2.745,2.745,0,0,1,2.981.092Z" transform="translate(53.412 26.379)"/><path class="d" d="M2.981.092A3.075,3.075,0,0,1,6.007,3.009,2.745,2.745,0,0,1,3.114,5.786,3.075,3.075,0,0,1,.088,2.869,2.745,2.745,0,0,1,2.981.092Z" transform="translate(70.583 14.548)"/><path class="d" d="M2.981.092A3.075,3.075,0,0,1,6.007,3.009,2.745,2.745,0,0,1,3.114,5.786,3.075,3.075,0,0,1,.088,2.869,2.745,2.745,0,0,1,2.981.092Z" transform="translate(87.753 2.717)"/></g></g><path class="e" d="M102.573-3.147a104.229,104.229,0,0,1,104.808,104.9c-.247,58.183-47.572,105.55-105.7,105.8A104.229,104.229,0,0,1-3.129,102.65C-2.882,44.467,44.442-2.9,102.573-3.147Z" transform="translate(-33.874 312.347) rotate(-42)"/><g transform="translate(983.95 -112.075)"><path class="e" d="M102.973-2.86A104.316,104.316,0,0,1,208.047,101.849c-.227,58.056-47.638,105.3-105.9,105.531A104.316,104.316,0,0,1-2.924,102.671C-2.7,44.615,44.714-2.633,102.973-2.86Z" transform="matrix(-0.545, 0.839, -0.839, -0.545, 313.666, 119.702)"/><path class="e" d="M60.622-1.684a61.413,61.413,0,0,1,61.86,61.644,62.582,62.582,0,0,1-62.344,62.128A61.413,61.413,0,0,1-1.721,60.445,62.582,62.582,0,0,1,60.622-1.684Z" transform="matrix(-0.545, 0.839, -0.839, -0.545, 166.751, 136.864)"/></g><path class="e" d="M60.387-1.853a61.362,61.362,0,0,1,61.7,61.758,62.634,62.634,0,0,1-62.23,62.285,61.362,61.362,0,0,1-61.7-61.758A62.634,62.634,0,0,1,60.387-1.853Z" transform="translate(112.317 334.094) rotate(-42)"/></g></svg>